<?xml version="1.0" encoding="UTF-8" standalone="no"?>
<!-- Created with Inkscape (http://www.inkscape.org/) -->

<svg
   width="95.312187mm"
   height="102.78128mm"
   viewBox="0 0 95.312187 102.78128"
   version="1.1"
   id="svg5"
   inkscape:version="1.1.2 (b8e25be833, 2022-02-05)"
   sodipodi:docname="LWJGL.svg"
   xmlns:inkscape="http://www.inkscape.org/namespaces/inkscape"
   xmlns:sodipodi="http://sodipodi.sourceforge.net/DTD/sodipodi-0.dtd"
   xmlns="http://www.w3.org/2000/svg"
   xmlns:svg="http://www.w3.org/2000/svg">
  <sodipodi:namedview
     id="namedview7"
     pagecolor="#ffffff"
     bordercolor="#666666"
     borderopacity="1.0"
     inkscape:pageshadow="2"
     inkscape:pageopacity="0.0"
     inkscape:pagecheckerboard="0"
     inkscape:document-units="mm"
     showgrid="false"
     inkscape:zoom="0.64052329"
     inkscape:cx="365.3263"
     inkscape:cy="-202.95905"
     inkscape:window-width="1920"
     inkscape:window-height="1017"
     inkscape:window-x="-8"
     inkscape:window-y="-8"
     inkscape:window-maximized="1"
     inkscape:current-layer="Layer_2" />
  <defs
     id="defs2" />
  <g
     inkscape:label="Layer 1"
     inkscape:groupmode="layer"
     id="layer1"
     transform="translate(-68.836452,-105.1643)">
    <g
       style="overflow:visible"
       id="g994"
       transform="matrix(0.26458333,0,0,0.26458333,66.534564,105.16435)">
      <g
         id="Layer_6">
</g>
      <g
         id="Layer_2">
	<path
   display="none"
   opacity="0.61"
   fill="#de923a"
   d="M 536.093,118.816 C 518.897,170.083 476.31,202.033 440.971,190.183 405.633,178.33 390.923,127.155 408.118,75.895 425.313,24.626 467.9,-7.322 503.236,4.533 c 35.343,11.849 50.051,63.023 32.857,114.283 z"
   id="path825" />

	<path
   fill="#ffffff"
   d="M 317.93118,220.92103 C 285.40761,317.88399 204.74898,378.27565 137.77319,355.81465 70.797405,333.35365 42.866515,236.52441 75.386036,139.57766 107.90961,42.610655 188.56823,-17.776954 255.53794,4.6921474 322.51981,27.147067 350.4507,123.97226 317.93118,220.92103 Z"
   id="path827"
   style="stroke-width:2.02589" />

	<path
   fill="#0a90cb"
   d="M 311.13433,217.28862 C 280.64272,308.1962 205.12782,364.8501 142.46515,343.83761 79.802468,322.8231 53.721212,232.07759 84.210796,141.18419 114.7024,50.274581 190.21528,-6.3772934 252.8739,14.645325 315.54266,35.653762 341.62189,126.39725 311.13433,217.28862 Z"
   id="path829"
   style="stroke-width:2.02589" />

	<path
   fill="#ffffff"
   d="M 356.66207,191.49099 259.41954,168.1933 c -4.09229,-1.07777 -10.44344,0.68272 -14.09004,2.42498 l 20.56477,-76.643313 c 1.89623,-7.035902 0.12358,-15.882946 -3.5453,-21.942371 -3.66888,-6.059425 -15.29341,-21.721549 -19.72605,-27.596618 -4.43264,-5.875069 -7.97996,-7.313448 -13.22498,-7.572762 l -74.35002,-4.242205 c -10.02611,-0.678672 -20.30545,7.32763 -22.95734,17.880469 L 111.52987,132.99353 47.54226,117.5421 C 39.8601,115.4838 31.967249,120.45127 29.913,128.62977 L 9.2307307,210.90505 c -2.0583001,8.18053 2.0400673,16.35093 9.3636453,19.83748 L 307.28312,385.89298 c 9.62296,5.06471 18.57535,2.96184 21.61013,-9.11852 l 39.10973,-156.97577 c 3.03477,-12.07428 -1.49511,-25.71254 -11.34091,-28.3077 z"
   id="path831"
   style="stroke-width:2.02589" />

	<g
   id="g843"
   transform="matrix(2.0258859,0,0,2.0258859,-8.9252592,1.9554393e-4)">
		<path
   d="m 103.521,133.708 c -1.006,4.003 -4.428,6.12 -7.644,4.728 L 63.852,124.574 c -3.216,-1.393 -5.109,-5.359 -4.229,-8.861 l 8.855,-35.227 c 0.88,-3.501 4.303,-5.621 7.646,-4.732 l 33.288,8.838 c 3.342,0.888 5.236,4.853 4.229,8.854 z"
   id="path833" />

		<g
   id="g841">
			<path
   d="m 163.445,159.116 c -1.16,4.615 -5.048,7.144 -8.683,5.648 L 119.14,148.702 c -3.635,-1.495 -5.744,-6.04 -4.71,-10.156 l 10.566,-42.111 c 1.034,-4.113 4.922,-6.645 8.685,-5.653 l 37.468,9.87 c 3.762,0.99 5.873,5.535 4.713,10.149 z"
   id="path835" />

			<path
   d="m 50.911,111.844 c -0.853,3.394 -3.563,5.166 -6.052,3.96 L 19.9,104.265 c -2.49,-1.208 -3.918,-4.532 -3.19,-7.427 l 7.481,-29.591 c 0.728,-2.894 3.438,-4.67 6.054,-3.967 l 26.056,7.002 c 2.616,0.702 4.045,4.024 3.192,7.418 z"
   id="path837" />

			<path
   d="m 108.224,68.855 c -0.968,3.849 -4.276,6.375 -7.39,5.639 L 69.829,67.17 C 66.716,66.434 64.874,63.125 65.716,59.777 L 74.181,26.1 c 0.842,-3.348 4.151,-5.875 7.391,-5.644 l 32.269,2.3 c 3.24,0.23 5.082,3.538 4.116,7.386 z"
   id="path839" />

		</g>

	</g>

	<line
   display="none"
   fill="#0092d2"
   x1="0"
   y1="108.564"
   x2="194.33299"
   y2="196.23"
   id="line845" />

	<line
   display="none"
   fill="none"
   x1="214"
   y1="119.23"
   x2="21.667"
   y2="68.563004"
   id="line847" />

</g>
      <g
         id="Layer_4">
	
	
	
	
	
</g>
    </g>
  </g>
</svg>
